<svg id="SvgjsSvg1058" width="288" height="288" xmlns="http://www.w3.org/2000/svg" version="1.1" xmlns:xlink="http://www.w3.org/1999/xlink" xmlns:svgjs="http://svgjs.com/svgjs"><defs id="SvgjsDefs1059"></defs><g id="SvgjsG1060" transform="matrix(0.9167,0,0,0.9167,11.993641366195675,12.514172625732442)"><svg xmlns="http://www.w3.org/2000/svg" width="288" height="288" viewBox="0 0 64 64"><g transform="matrix(1.99933 0 0 1.99933 2513.16 -7379.326)" fill="#000000" class="color000 svgShape"><path fill="#45c2f4" fill-rule="evenodd" d="m -1250.6742,3699.244 c -2.4367,2.4458 -2.4367,6.3836 0,8.8295 l 0.8796,0.883 8.7967,8.8296 8.7967,-8.8296 0.8797,-0.883 c 2.4367,-2.4459 2.4367,-6.3837 0,-8.8295 -2.4367,-2.4459 -6.36,-2.4459 -8.7967,0 l -0.8797,0.8829 -0.8796,-0.8829 c -2.4367,-2.4459 -6.3601,-2.4459 -8.7967,0 z" class="colorff143a svgShape"></path><path fill="none" stroke="#fff" stroke-linecap="round" stroke-linejoin="round" d="m -1249.9284,3705.7893 a 4.25,4.25 0 0 1 0,-4.25 4.25,4.25 0 0 1 3.6806,-2.125" opacity=".4" class="colorStrokefff svgStroke"></path><path fill="#45c2f4" fill-rule="evenodd" d="m -1246.2754,2677.0469 c -1.59,0 -3.1801,0.611 -4.3984,1.834 -0.2528,0.2537 -0.4735,0.528 -0.6739,0.8105 0.01,-0.01 0.01,-0.012 0.016,-0.018 2.224,-2.2324 5.8052,-2.2324 8.0293,0 l 1.1862,1.1966 0.8027,-0.8067 c 0.1031,-0.1035 0.2117,-0.1971 0.3203,-0.291 l -0.8835,-0.8918 c -1.2183,-1.223 -2.8084,-1.834 -4.3984,-1.834 z m 10.5547,0 c -1.2963,0 -2.5887,0.4136 -3.6836,1.2265 1.9566,-0.6267 4.1786,-0.1632 5.7363,1.4004 2.2242,2.2324 2.2242,5.8261 0,8.0586 l -0.8027,0.8067 -7.6895,7.7187 1.1622,1.166 8.7968,-8.83 0.8789,-0.8829 c 2.4367,-2.4459 2.4367,-6.3842 0,-8.83 -1.2183,-1.223 -2.8084,-1.834 -4.3984,-1.834 z" transform="translate(0 1020.362)" class="colord30045 svgShape"></path></g></svg></g></svg>